<svg xmlns="http://www.w3.org/2000/svg" viewBox="0 0 320 320" width="32" height="32">
  <path
     d="M 245.6,116.6 A 124.9,124.9 0 0 1 54.02,228.7 90.92,90.92 0 0 0 116.1,209.5 44.82,44.82 0 0 1 78.99,179.4 44.82,44.82 0 0 0 98.84,178 44.82,44.82 0 0 1 62.34,135.8 44.82,44.82 0 0 0 80.28,139 44.82,44.82 0 0 1 68.75,81.37 124.9,124.9 0 0 0 159.1,127.5 42.9,42.9 0 0 1 233.3,87.78 74.92,74.92 0 0 0 260.9,76.89 41.62,41.62 0 0 1 241,101.2 74.92,74.92 0 0 0 266,94.18 41.62,41.62 0 0 1 245.6,116.6" />
</svg>
