<svg xmlns="http://www.w3.org/2000/svg"><symbol id="inject-icon-Rplus" viewBox="0 0 320 320"><path d="M94.32 69.62c-5.98 2.43-4.24 10.65-6.16 15.59-4.9 3.11-12.35 3.95-18.03 6.64C45.87 101 21.61 113.2 4.162 132.5c-4.956 5.4-5.37 13.2-1.86 19.4 4.234 10.6 8.878 21.4 16.618 30 3.82 3.2 11.15-.1 8.78-5.3-2.89-10-9.5-22.4-1.65-31.8 14.04-17.7 36.23-26.3 57.17-34.2-3.73 12.5-6.79 25.8-11.85 37.6-4.54.8-13.53.5-13.53 6.8 1.04 5.3 6.1 9.6 7.02 14.4-6.71 17.6-13.62 36.2-21.88 52.6-2.07-3-6.3-9.2-10.53-5.1-3.41 4.5-.52 11-3.72 15.9-1.65 8.2-7.95 15.3-7.33 23.8 2.48 6 8.26 11.2 14.66 13.2 7.54-.2 9.29-9.5 12.29-14.5 10.53-23.4 20.23-47.1 28.28-71.4 30.57 40.6 64.07 79.6 103.87 111.9 6.2 5.1 15.9 6.6 22.2.8 7.1-6.3 13.3-14.2 16.6-23 1.5-5.2-5.7-7.5-9.2-4.3-5.3 4.9-13.5 6.5-19.5 2.1-23.3-14.7-41.1-36.1-59.3-55.9-16.4-18.8-31.94-38.5-46.11-59.1 5.94-17.1 11.1-34.4 15.31-51.9 16.1-5.73 33.9-10.74 51.2-6.76 9.5 2.04 10.9 12.96 7.7 20.36-5.9 15-16.8 28.4-29.4 38.7-6.5 5.6-15.8 7.5-23.7 3.9-5-2.2-11.55 3.1-8.02 8 9.42 8.1 23.02 15.7 35.82 10.5 16.1-7.1 26.8-21.7 36.7-35.3 8.1-11.7 14.5-28 6.6-41.3-3.9-6.46-12.4-8.76-14.6-16.14-4.6-9.01-15.2-14.65-25.5-12.29-10.9 1.39-21.9 3.82-32.6 6.35-2.6-3.64-4.87-10.75-10.38-10.9zM226.4 0c-5.5.42-6.8 7.946-3.4 11.5-.2 8.47-2.5 17.49-5 25.08-10.5.16-21.6-3.81-31.9-.3-6.3 3.67-6 12.24-6.7 18.44 1.5 5.13 8.9 5.35 11.9 1.61 7.1-1.15 15.9-1.65 22.3-.21-1.8 8.96-8 17.93-5.9 27.27 2.9 6.14 10.6 7.24 16.2 9.44 5.7 0 7.7-7.84 4.2-11.64 1.1-8.42 3-17.33 5.1-25.24 9.9-.4 20.5 3.26 30-.13 5.6-3.76 6.5-11.15 7.7-17.19-.6-5.68-9.3-7.09-11.9-2.23-7 2.11-14.3.64-21.4.72 1.6-8.47 6-16.81 5.1-25.5C240.2 5.166 232.6 1.55 226.4 0z"/></symbol><symbol id="inject-icon-blog" viewBox="0 0 320 320"><path d="M247.5 163q3.2 3.3 2.3 5.4-1 2.3-5.4 2.3h-16.9v61.9q0 2.9-.2 4.1-.1 1.6-1.5 2.6-1.5 1.3-4.6 1.3h-40.8v-62h-40.8v62h-38.8q-5.58 0-6.97-2.1-1.41-1.9-1.41-5.9v-61.9H75.63q-4.4 0-5.4-2.3-.99-2.1 2.21-5.4l79.96-80.32q3.2-3.24 7.6-3.24 4.3 0 7.6 3.24z"/></symbol><symbol id="inject-icon-codepen" viewBox="0 0 320 320"><path d="M255.8 122.4l-91.1-60.78c-2.9-1.88-6.6-1.88-9.4 0L63.95 122.4c-2.65 1.9-3.95 4.3-3.95 6.7v61.1c0 2.9 2.09 5.3 4.04 6.7L155 258.3c3.4 2 6.8 1.9 9.7 0l91.4-61c2.6-1.4 3.9-4 3.9-6.9v-61.1c0-3.4-2.2-5.6-4.2-6.9zm-87.3-37.64l67.3 44.54-30.1 20.2-37.2-25zm-17 0v39.74l-37.3 25-30.03-20.2 67.33-44.78zM77.3 145.5l21.45 14.3-21.45 14.5zm74.2 89.6l-67.35-44.7 30.05-20.1 37.3 25zm8.5-54.8l-30.5-20.5 30.5-20.3 30.4 20.3zm8.5 54.8V195l37.2-24.7 30.1 20.1zm74.1-60.8l-21.4-14.5 21.4-14.3z"/></symbol><symbol id="inject-icon-facebook" viewBox="0 0 320 320"><path d="M243.6 61.91v41.29h-24.4q-13.7 0-18.3 5.6-4.6 5.6-4.6 16.8v29.6h45.6l-6 46.1h-39.6V320h-48V201.3h-39.8v-46.1h39.8V121q0-28.92 16.4-45 16.1-15.95 43.2-15.95 22.9 0 35.7 1.86z"/></symbol><symbol id="inject-icon-github" viewBox="0 0 320 320"><path d="M197.1 320v-62.2c0-12.7-3.3-22-10-28 7.3-.7 14-1.7 20-3 6-2 12-4.7 18-8 6.7-3.3 12-7.7 16-13s7.3-12 10-20c2.7-8.7 4-18.7 4-30 0-15.3-5-28.7-15-40 4.7-12 4-25.29-2-39.82-3.3-1.2-8.7-.5-16 2.1-6.7 2.67-12.3 5.53-17 8.6l-8 5.1c-12-3.6-24.3-5.4-37-5.4-13.3 0-26 1.8-38 5.4-2-2-4.7-3.87-8-5.6-3.3-2.13-9-4.67-16.88-7.6-7.07-2.93-12.5-3.8-16.3-2.6-5.73 14.53-6.2 27.82-1.39 39.82-10.27 11.3-15.41 24.7-15.41 40 0 11.3 1.33 21.3 4 30 2.67 8 6.1 14.7 10.3 20 4.13 5.3 9.4 9.7 15.8 13 5.88 3.3 11.88 6 17.88 8 6 1.3 12.7 2.3 20 3-5.3 4.7-8.3 11.3-9 20-2.7 1.3-5.7 2.3-9 3-3.3.7-7 1-11 1-4.59 0-8.88-1.3-12.88-4-4.27-2.7-7.9-6.7-10.9-12-2.47-4-5.6-7.3-9.4-10-3.87-2.7-7.1-4.3-9.7-5l-3.9-1c-2.73 0-4.63.3-5.7 1-1 .7-1.33 1.7-1 3 .4.7 1 1.3 1.8 2 .8 1.3 1.63 2.3 2.5 3l1.4 1c2.87 1.3 5.7 3.7 8.5 7 2.8 4 4.87 7.3 6.2 10l1.9 5c1.67 4.7 4.53 8.7 8.6 12 4.07 2.7 8.3 4.3 12.7 5 4.59 1.3 9.18 2 13.88 2 4.7 0 8.3-.3 11-1l4-1V320z"/></symbol><symbol id="inject-icon-gmail" viewBox="0 0 320 320"><path d="M253.4 107.6c4.7-2.6 6.8-5.6 6.2-9-.3-2.1-2.2-3.1-5.8-3.1H65.78c-5.64 0-7.14 2.5-4.5 7.1 1.22 2.1 3 3.7 5.36 5 2.08.8 16.29 8.4 42.66 22.5 26.5 13.5 39.9 21.6 40.5 22 6 2.9 15 3 20.5 0 .5-.4 14-8.5 40.4-22 26.4-14.1 40.6-21.7 42.7-22.5zM64.43 129.7c-2.99-1.5-4.43-.6-4.43 2.4v81.6c.58 5 6.28 10.8 11.08 10.8H248.9c5.2-.8 11-5.8 11.1-10.8v-81.6c0-2.9-1.5-3.8-4.4-2.3l-85.3 44.4c-6.1 2.9-14.9 3.1-20.5 0z"/></symbol></svg>