<svg
  xmlns="http://www.w3.org/2000/svg"
  viewBox="0 0 320 320">

    <path
      d="m 310,164 q 0,49 -29,88 -29,39 -74,54 -5,1 -8,-1 -2,-2 -2,-6 v -41 q 0,-19 -10,-28 11,-1 20,-3 9,-3 18,-8 10,-5 16,-13 6,-8 10,-20 4,-13 4,-30 0,-23 -15,-40 7,-18 -2,-39.8 -5,-1.8 -16,2.1 -10,4 -17,8.6 l -8,5.1 q -18,-5.4 -37,-5.4 -20,0 -38,5.4 -3,-3 -8,-5.6 Q 109,83.2 97.1,78.8 86.5,74.4 80.8,76.2 72.2,98 79.4,116 64,133 64,156 q 0,17 4,30 4,12 10.3,20 6.2,8 15.8,13 8.9,5 17.9,8 9,2 20,3 -8,7 -9,20 -4,2 -9,3 -5,1 -11,1 -6.9,0 -12.9,-4 -6.4,-4 -10.9,-12 -3.7,-6 -9.4,-10 -5.8,-4 -9.7,-5 l -3.9,-1 q -4.1,0 -5.7,1 -1.5,1 -1,3 0.6,1 1.8,2 1.2,2 2.5,3 l 1.4,1 q 4.3,2 8.5,7 4.2,6 6.2,10 l 1.9,5 q 2.5,7 8.6,12 6.1,4 12.7,5 6.9,2 13.9,2 7,0 11,-1 l 4,-1 q 0,8 0,18 0,10 0,10 0,4 -2,6 -3,2 -8,1 Q 66.9,291 38.3,252 9.75,213 9.75,164 9.75,123 29.8,89 49.9,54.3 84.4,34.2 119,14.1 160,14.1 q 40,0 75,20.1 34,20.1 54,54.8 21,34 21,75 z" />

</svg>
